<svg xmlns="http://www.w3.org/2000/svg" width="102.006" height="28.006" viewBox="0 0 102.006 28.006">
  <path id="Shape_2_copy" data-name="Shape 2 copy" d="M1189.22,1028.546c-4.274,0-8.653,3.127-8.653,6.966a4.711,4.711,0,0,0,1.857,3.982c.665.532.665,1.313-.106,2.167a5.121,5.121,0,0,1-3.573,1.776c-1.612,0-3.748-1.527-3.748-4.477,0-1.635,1.051-5.154,5.255-8.353a21.263,21.263,0,0,1,12.541-4.832c9.177-7.429,16.6-8.779,22-8.779a37.973,37.973,0,0,1,13.8,2.985c2.383.924,11.631,4.834,18.182,7.747,6.865,2.879,12.785,4.621,16.848,4.621,3.259,0,7.953-1.174,7.953-5.225a3.734,3.734,0,0,0-1.4-3.128,2.137,2.137,0,0,1-.806-1.458,3.882,3.882,0,0,1,3.643-3.766c2.592,0,3.993,2.63,3.993,4.62,0,5.4-5.813,9.063-9.738,10.7-7.217,7.782-14.5,10.911-21.578,10.911-5.184,0-10.158-1.422-16.743-3.839-4.976-1.849-20.6-8.316-26.869-10.343-5.779-1.813-9.073-2.275-12.786-2.275Zm20.141-8.6a13.8,13.8,0,0,0-11.595,6.078c2.733.035,6.867.64,13.7,3.162,6.83,2.347,19.442,7.819,23.855,9.348,4.905,1.635,9.6,2.985,14.258,2.985,5.219,0,9.879-1.741,12.33-6.218-4.869.638-9.457-.143-16.219-2.809-5.184-2.025-19.476-8.671-24.311-10.341a36.807,36.807,0,0,0-11.944-2.2Z" transform="translate(-1174.997 -1016.997)" fill="#ee252d"/>
</svg>
