<svg xmlns="http://www.w3.org/2000/svg" width="469" height="93.001" viewBox="0 0 469 93.001">
  <g id="Vector_Smart_Object" data-name="Vector Smart Object" transform="translate(-676 -1686)">
    <g id="Vector_Smart_Object-2" data-name="Vector Smart Object" transform="translate(510.493 1324.186)">
      <path id="Path_1" data-name="Path 1" d="M618.516,380.341V379.1c0-9.548-8.516-17.291-19.014-17.291H200.511c-10.5,0-19.013,7.743-19.013,17.291v1.236a32.462,32.462,0,0,0,0,55.946v1.237c0,9.55,8.513,17.291,19.013,17.291H599.5c10.5,0,19.014-7.741,19.014-17.291v-1.237a32.463,32.463,0,0,0,0-55.946Zm-1.606,53.206-1.564.921v3.056c0,7.782-7.108,14.112-15.844,14.112H200.511c-8.737,0-15.845-6.33-15.845-14.112v-3.056l-1.564-.92a29.279,29.279,0,0,1,0-50.464l1.564-.922V379.1c0-7.781,7.108-14.111,15.845-14.111H599.5c8.736,0,15.844,6.33,15.844,14.111v3.056l1.564.922a29.278,29.278,0,0,1,0,50.463Z" fill="#4e4a3f"/>
      <path id="Path_2" data-name="Path 2" d="M616.27,384.178l-2.192-1.29V379.1c0-7.08-6.539-12.839-14.576-12.839H200.511c-8.038,0-14.577,5.76-14.577,12.839v3.784l-2.191,1.29a28.005,28.005,0,0,0,0,48.271l2.191,1.29v3.785c0,7.081,6.539,12.84,14.577,12.84H599.5c8.037,0,14.576-5.76,14.576-12.84v-3.785l2.192-1.29a28.006,28.006,0,0,0,0-48.271ZM187.658,412.906a4.592,4.592,0,1,1,4.579-4.592A4.585,4.585,0,0,1,187.658,412.906Zm424.7,0a4.592,4.592,0,1,1,4.578-4.592A4.585,4.585,0,0,1,612.354,412.906Z" fill="#4e4a3f"/>
    </g>
    <path id="Color_Overlay" data-name="Color Overlay" d="M711,1779c-10.5,0-19.013-7.741-19.013-17.292v-1.237a32.462,32.462,0,0,1,0-55.946v-1.236c0-9.548,8.514-17.291,19.013-17.291H1110c10.5,0,19.014,7.743,19.014,17.291v1.236a32.463,32.463,0,0,1,0,55.946v1.237c0,9.551-8.516,17.292-19.014,17.292Zm-15.844-75.71v3.056l-1.564.922a29.279,29.279,0,0,0,0,50.464l1.564.92v3.056c0,7.782,7.107,14.113,15.844,14.113H1110c8.736,0,15.844-6.331,15.844-14.113v-3.056l1.564-.921a29.278,29.278,0,0,0,0-50.463l-1.564-.922v-3.056c0-7.781-7.108-14.111-15.844-14.111H711C702.267,1689.179,695.16,1695.509,695.16,1703.291ZM711,1774.549c-8.038,0-14.577-5.759-14.577-12.84v-3.784l-2.191-1.29a28,28,0,0,1,0-48.271l2.191-1.29v-3.784c0-7.08,6.539-12.839,14.577-12.839H1110c8.037,0,14.576,5.759,14.576,12.839v3.784l2.192,1.29a28.007,28.007,0,0,1,0,48.271l-2.192,1.29v3.784c0,7.081-6.539,12.84-14.576,12.84ZM1118.27,1732.5a4.578,4.578,0,1,0,4.578-4.593A4.585,4.585,0,0,0,1118.27,1732.5Zm-424.7,0a4.578,4.578,0,1,0,4.577-4.593A4.585,4.585,0,0,0,693.574,1732.5Z" fill="#ef2e35"/>
  </g>
</svg>
